<?xml version="1.0" encoding="UTF-8"?>
<svg width="1024" height="1024" viewBox="0 0 1024 1024" xmlns="http://www.w3.org/2000/svg">
  <g transform="translate(512,512)">
    <path d="M400 0 A400 400 0 0 1 283 283 L212 212 A300 300 0 0 0 300 0 Z" fill="#4B5563"/>
    <path d="M283 283 A400 400 0 0 1 0 400 L0 300 A300 300 0 0 0 212 212 Z" fill="#5F6875"/>
    <path d="M0 400 A400 400 0 0 1 -283 283 L-212 212 A300 300 0 0 0 0 300 Z" fill="#727A86"/>
    <path d="M-283 283 A400 400 0 0 1 -400 0 L-300 0 A300 300 0 0 0 -212 212 Z" fill="#8B929D"/>
    <path d="M-400 0 A400 400 0 0 1 -283 -283 L-212 -212 A300 300 0 0 0 -300 0 Z" fill="#A3A9B2"/>
    <path d="M-283 -283 A400 400 0 0 1 0 -400 L0 -300 A300 300 0 0 0 -212 -212 Z" fill="#BABFC6"/>
    <path d="M0 -400 A400 400 0 0 1 283 -283 L212 -212 A300 300 0 0 0 0 -300 Z" fill="#D1D4D8"/>
    <path d="M283 -283 A400 400 0 0 1 400 0 L300 0 A300 300 0 0 0 212 -212 Z" fill="#E7E9EC"/>
  </g>
</svg>
