<svg version="1.2" xmlns="http://www.w3.org/2000/svg" viewBox="0 0 842 1191" width="842" height="1191">
	<title>Proyecto nuevo</title>
	<style>
		.s0 { fill: #0b1b30 } 
		.s1 { fill: #ffffff } 
	</style>
	<g id="Layer 1">
		<path id="&lt;Path&gt;" class="s0" d="m1200 4892h-1200v-1200h1200z"/>
		<g id="&lt;Group&gt;">
			<g id="&lt;Group&gt;">
				<path id="&lt;Path&gt;" class="s0" d="m447.7 2996.8q0-0.4 0-0.9c0-8.1-6.6-14.8-14.8-14.8-4 0-7.7 1.7-10.3 4.3-2.8 2.7-4.5 6.4-4.5 10.5 0 8.2 6.7 14.8 14.8 14.8q0.3 0 0.6 0l49.9 50.8v27.9c0 25-9.7 49-27.2 66.8l-73.8 75.4v-287l101-32.2v120.7z"/>
				<path id="&lt;Path&gt;" class="s0" d="m696.7 2948.6v127.6c0 2.4-0.9 4.6-2.6 6.3l-31.1 31.6-40.5 41.1c-12.4 12.6-32.7 12.6-45 0l-71.7-72.7c-1.6-1.7-2.5-3.9-2.5-6.3v-109.1l116 117.1c0 0.2 0 0.5 0 0.8 0.8 6.6 6.1 12 12.7 12.9 4.4 0.6 8.5-0.7 11.6-3.3 3.8-3.3 6-8.5 5-14.1-1.3-7.1-7.9-12.3-15.1-12q-0.8 0-1.6 0.1l-25.1-25.3z"/>
				<path id="&lt;Path&gt;" class="s0" d="m817.6 2944.6v287l-73.8-75.4c-17.5-17.8-27.2-41.8-27.2-66.8v-27.9l49.9-50.8q0.3 0 0.6 0c8.1 0 14.8-6.6 14.8-14.8 0-4.1-1.7-7.8-4.5-10.5-2.6-2.6-6.3-4.3-10.3-4.3-8.2 0-14.8 6.7-14.8 14.8q0 0.5 0 0.9l-35.7 36.3v-120.7z"/>
			</g>
		</g>
		<g id="&lt;Group&gt;">
			<g id="&lt;Group&gt;">
				<path id="&lt;Path&gt;" class="s1" d="m447.7 4216.8q0-0.4 0-0.9c0-8.1-6.6-14.8-14.8-14.8-4 0-7.7 1.7-10.3 4.3-2.8 2.7-4.5 6.4-4.5 10.5 0 8.2 6.7 14.8 14.8 14.8q0.3 0 0.6 0l49.9 50.8v27.9c0 25-9.7 49-27.2 66.8l-73.8 75.4v-287l101-32.2v120.7z"/>
				<path id="&lt;Path&gt;" class="s1" d="m696.7 4168.6v127.6c0 2.4-0.9 4.6-2.6 6.3l-31.1 31.6-40.5 41.1c-12.4 12.6-32.7 12.6-45 0l-71.7-72.7c-1.6-1.7-2.5-3.9-2.5-6.3v-109.1l116 117.1c0 0.2 0 0.5 0 0.8 0.8 6.6 6.1 12 12.7 12.9 4.4 0.6 8.5-0.7 11.6-3.3 3.8-3.3 6-8.5 5-14.1-1.3-7.1-7.9-12.3-15.1-12q-0.8 0-1.6 0.1l-25.1-25.3z"/>
				<path id="&lt;Path&gt;" class="s1" d="m817.6 4164.6v287l-73.8-75.4c-17.5-17.8-27.2-41.8-27.2-66.8v-27.9l49.9-50.8q0.3 0 0.6 0c8.1 0 14.8-6.6 14.8-14.8 0-4.1-1.7-7.8-4.5-10.5-2.6-2.6-6.3-4.3-10.3-4.3-8.2 0-14.8 6.7-14.8 14.8q0 0.5 0 0.9l-35.7 36.3v-120.7z"/>
			</g>
		</g>
		<g id="&lt;Group&gt;">
			<g id="&lt;Group&gt;">
			</g>
			<g id="&lt;Group&gt;">
				<g id="&lt;Group&gt;">
				</g>
				<g id="&lt;Group&gt;">
				</g>
			</g>
		</g>
		<g id="&lt;Group&gt;">
			<g id="&lt;Group&gt;">
				<path id="&lt;Path&gt;" class="s1" d="m105.9 548.2q0.1-0.3 0.1-0.5c0-5.1-4.1-9.1-9.2-9.1-2.5 0-4.7 0.9-6.4 2.6-1.7 1.6-2.7 3.9-2.7 6.5 0 5 4.1 9.1 9.1 9.1q0.2 0 0.4 0l30.8 31.4v17.2c0 15.5-6 30.3-16.8 41.3l-45.6 46.6v-177.3l62.4-19.9v74.6z"/>
				<path id="&lt;Path&gt;" class="s1" d="m259.8 518.4v78.9c0 1.4-0.6 2.8-1.6 3.8l-19.3 19.6-24.9 25.4c-7.7 7.8-20.2 7.8-27.9 0l-44.2-45c-1-1-1.6-2.4-1.6-3.8v-67.4l71.7 72.3q0 0.2 0 0.5c0.5 4.1 3.7 7.4 7.8 8 2.7 0.4 5.3-0.5 7.2-2.1 2.3-2 3.7-5.2 3-8.6-0.7-4.4-4.8-7.7-9.3-7.5q-0.5 0-1 0.1l-15.4-15.6z"/>
				<path id="&lt;Path&gt;" class="s1" d="m334.4 516v177.3l-45.5-46.6c-10.8-11-16.9-25.8-16.9-41.3v-17.2l30.9-31.4q0.2 0 0.3 0c5.1 0 9.2-4.1 9.2-9.1 0-2.6-1.1-4.9-2.8-6.5-1.6-1.7-3.9-2.6-6.4-2.6-5 0-9.1 4-9.1 9.1q0 0.2 0 0.5l-22.1 22.5v-74.6z"/>
			</g>
			<g id="&lt;Group&gt;">
				<g id="&lt;Group&gt;">
					<path id="&lt;Path&gt;" class="s1" d="m473.9 496.1l-36.3 61.2-36.9-61.2h-18.9v98.6h21.4v-57.9l28.9 47.5h10.3l29-48.8 0.1 59.2h21.4l-0.3-98.6z"/>
					<path id="&lt;Path&gt;" class="s1" d="m613 548.8q0 14.1-5.8 20.2-5.8 6.2-16.2 6.2-10.4 0-16.2-6.2-5.8-6.1-5.8-20.2v-52.7h-22.8v53.5q0 21.7 11.8 33.4 11.9 11.7 32.8 11.7 21 0 32.9-11.7 11.8-11.7 11.8-33.4v-53.5h-22.5z"/>
					<path id="&lt;Compound Path&gt;" class="s1" d="m776.4 594.7l-22.1-31.6q0.1-0.1 0.2-0.1 9.6-4.2 14.8-12.2 5.2-7.9 5.2-18.9 0-11.2-5.2-19.2-5.2-8-14.8-12.3-9.5-4.3-22.8-4.3h-42.6v98.6h22.8v-27.5h19.8q0.6 0 1.1 0l18.9 27.5zm-30.1-75.5q5.2 4.5 5.2 12.7 0 8-5.2 12.6-5.2 4.5-15.8 4.5h-18.6v-34.3h18.6q10.6 0 15.8 4.5z"/>
				</g>
				<g id="&lt;Group&gt;">
					<path id="&lt;Path&gt;" class="s1" d="m415.5 663.6q-2.6-1.4-5.6-2.3-3-0.9-6-1.6-2.9-0.7-5.2-1.4-2.2-0.6-3.4-1.7-0.5-0.4-0.7-1-0.3-0.5-0.3-1.3c0-0.9 0.3-1.7 0.8-2.4 0.4-0.6 1.3-1.2 2.6-1.7 1.2-0.5 3-0.8 5.2-0.8q2.8 0 5.9 0.9 3.1 0.8 6.1 2.5l1.3 0.9 3.8-9.2-1-0.6q-3.2-2.1-7.5-3.2-4.2-1.1-8.5-1.1c-4.4 0-8 0.6-11 2-2.9 1.3-5.2 3.1-6.7 5.5-1.5 2.3-2.2 4.8-2.2 7.6 0 2.6 0.5 4.9 1.7 6.8 1.1 1.7 2.6 3.1 4.4 4.2q2.5 1.5 5.6 2.4 3 0.9 5.9 1.6 2.9 0.6 5.2 1.3 2.2 0.7 3.5 1.8 0.5 0.5 0.7 1 0.3 0.5 0.3 1.3c0 0.9-0.3 1.6-0.8 2.2-0.5 0.7-1.3 1.2-2.6 1.7-1.3 0.5-3.1 0.7-5.4 0.7q-4 0-7.9-1.3-3.9-1.4-6.4-3.4l-1.4-1.1-4.1 9.2 0.8 0.6c2.1 1.8 4.9 3.2 8.3 4.3q5.1 1.6 10.7 1.6c4.3 0 8-0.7 11-2 2.9-1.3 5.2-3.2 6.7-5.5 1.5-2.3 2.2-4.9 2.2-7.6 0-2.5-0.5-4.8-1.6-6.7-1.1-1.7-2.6-3.1-4.4-4.2z"/>
					<path id="&lt;Compound Path&gt;" class="s1" d="m468.7 646.7q-3.5-3.4-8.3-5.3-4.7-1.8-10.3-1.8-5.6 0-10.4 1.8-4.7 1.9-8.3 5.3-3.5 3.4-5.5 7.9-2 4.6-1.9 10-0.1 5.4 1.9 9.9 2 4.6 5.5 8 3.6 3.3 8.3 5.2 4.8 1.9 10.4 1.9 5.6 0 10.3-1.9 4.8-1.9 8.3-5.2 3.6-3.3 5.5-7.9 2-4.6 2-10 0-5.4-2-10-1.9-4.5-5.5-7.9zm-33.4 17.9q0-3.3 1.1-6 1.1-2.6 3.1-4.6 2-2 4.7-3.1 2.6-1.1 5.9-1.1 3.2 0 5.9 1.1 2.7 1.1 4.6 3.1 2 2 3.1 4.6 1.1 2.7 1.1 6 0 3.3-1.1 5.9-1.1 2.7-3.1 4.7-1.9 2-4.6 3-2.7 1.1-5.9 1.1-3.3 0-5.9-1.1-2.7-1-4.7-3-2-2-3.1-4.7-1.1-2.7-1.1-5.9z"/>
					<path id="&lt;Path&gt;" class="s1" d="m493.8 639.6h-11.3v50h1.4 33.9v-10h-24z"/>
					<path id="&lt;Path&gt;" class="s1" d="m552.5 667.2q0 3.4-0.7 5.7c-0.4 1.6-1.1 2.8-1.9 3.7-0.9 0.9-1.9 1.5-3.1 2q-1.9 0.7-4.5 0.7-2.6 0-4.5-0.7c-1.2-0.5-2.2-1.1-3.1-2.1-0.9-0.8-1.5-2-2-3.6q-0.7-2.3-0.7-5.7v-27.6h-11.3v27.9q0 5.2 1.4 9.3c1 2.8 2.4 5.1 4.4 7.1q2.9 2.8 6.9 4.3 3.9 1.4 8.8 1.4 4.9 0 8.9-1.4 3.9-1.5 6.8-4.3c2-2 3.4-4.3 4.4-7.1q1.4-4.1 1.4-9.3v-27.9h-11.2z"/>
					<path id="&lt;Path&gt;" class="s1" d="m566.1 649.6h15.2v40h1.4 9.9v-40h15.2v-10h-41.7z"/>
					<path id="&lt;Path&gt;" class="s1" d="m611.5 689.6h1.4 9.9v-50h-11.3z"/>
					<path id="&lt;Compound Path&gt;" class="s1" d="m673.9 646.7q-3.5-3.4-8.3-5.3-4.7-1.8-10.3-1.8-5.6 0-10.4 1.8-4.7 1.9-8.3 5.3-3.6 3.4-5.5 7.9-2 4.6-1.9 10-0.1 5.4 1.9 9.9 1.9 4.6 5.5 8 3.6 3.3 8.3 5.2 4.8 1.9 10.4 1.9 5.6 0 10.3-1.9 4.8-1.9 8.3-5.2 3.6-3.3 5.5-7.9 2-4.6 2-10 0-5.4-2-10-1.9-4.5-5.5-7.9zm-33.4 17.9q0-3.3 1.1-6 1.1-2.6 3.1-4.6 2-2 4.7-3.1 2.6-1.1 5.9-1.1 3.2 0 5.9 1.1 2.7 1.1 4.6 3.1 2 2 3.1 4.6 1.1 2.7 1.1 6 0 3.3-1.1 5.9-1.1 2.7-3.1 4.7-1.9 2-4.6 3-2.7 1.1-5.9 1.1-3.3 0-5.9-1.1-2.7-1-4.7-3-2-2-3.1-4.7-1.1-2.7-1.1-5.9z"/>
					<path id="&lt;Path&gt;" class="s1" d="m720 668.7l-23.3-29.1h-9v50h1.4 9.8v-29.7l23.3 29.7h9v-50h-11.2z"/>
					<path id="&lt;Path&gt;" class="s1" d="m774.7 667.8c-1.1-1.7-2.6-3.1-4.4-4.2q-2.5-1.4-5.6-2.3-2.9-0.9-5.9-1.6-2.9-0.7-5.3-1.4-2.2-0.6-3.4-1.7-0.5-0.4-0.7-1-0.2-0.5-0.3-1.3c0.1-0.9 0.3-1.7 0.8-2.4 0.5-0.6 1.3-1.2 2.6-1.7 1.2-0.5 3-0.8 5.2-0.8q2.8 0 6 0.9 3.1 0.8 6 2.5l1.4 0.9 3.7-9.2-1-0.6q-3.2-2.1-7.5-3.2-4.2-1.1-8.5-1.1c-4.3 0-8 0.6-11 2-2.9 1.3-5.2 3.1-6.7 5.5-1.4 2.3-2.2 4.8-2.2 7.6 0 2.6 0.6 4.9 1.7 6.8 1.2 1.7 2.6 3.1 4.4 4.2q2.6 1.5 5.6 2.4 3 0.9 6 1.6 2.8 0.6 5.2 1.3 2.2 0.7 3.4 1.8 0.5 0.5 0.8 1 0.2 0.5 0.2 1.3c0 0.9-0.2 1.6-0.7 2.2-0.5 0.7-1.4 1.2-2.7 1.7-1.3 0.5-3.1 0.7-5.4 0.7q-4 0-7.8-1.3-3.9-1.4-6.5-3.4l-1.4-1.1-4.1 9.2 0.8 0.6c2.1 1.8 4.9 3.2 8.3 4.3q5.1 1.6 10.7 1.6c4.4 0 8-0.7 11-2 3-1.3 5.3-3.2 6.8-5.5 1.4-2.3 2.2-4.9 2.2-7.6 0-2.5-0.6-4.8-1.7-6.7z"/>
					<path id="&lt;Path&gt; copy" class="s1" d="m105.9 548.2q0.1-0.3 0.1-0.5c0-5.1-4.1-9.1-9.2-9.1-2.5 0-4.7 0.9-6.4 2.6-1.7 1.6-2.7 3.9-2.7 6.5 0 5 4.1 9.1 9.1 9.1q0.2 0 0.4 0l30.8 31.4v17.2c0 15.5-6 30.3-16.8 41.3l-45.6 46.6v-177.3l62.4-19.9v74.6z"/>
					<path id="&lt;Path&gt; copy 2" class="s1" d="m259.8 518.4v78.9c0 1.4-0.6 2.8-1.6 3.8l-19.3 19.6-24.9 25.4c-7.7 7.8-20.2 7.8-27.9 0l-44.2-45c-1-1-1.6-2.4-1.6-3.8v-67.4l71.7 72.3q0 0.2 0 0.5c0.5 4.1 3.7 7.4 7.8 8 2.7 0.4 5.3-0.5 7.2-2.1 2.3-2 3.7-5.2 3-8.6-0.7-4.4-4.8-7.7-9.3-7.5q-0.5 0-1 0.1l-15.4-15.6z"/>
					<path id="&lt;Path&gt; copy 3" class="s1" d="m334.4 516v177.3l-45.5-46.6c-10.8-11-16.9-25.8-16.9-41.3v-17.2l30.9-31.4q0.2 0 0.3 0c5.1 0 9.2-4.1 9.2-9.1 0-2.6-1.1-4.9-2.8-6.5-1.6-1.7-3.9-2.6-6.4-2.6-5 0-9.1 4-9.1 9.1q0 0.2 0 0.5l-22.1 22.5v-74.6z"/>
					<path id="&lt;Path&gt; copy 4" class="s1" d="m473.9 496.1l-36.3 61.2-36.9-61.2h-18.9v98.6h21.4v-57.9l28.9 47.5h10.3l29-48.8 0.1 59.2h21.4l-0.3-98.6z"/>
					<path id="&lt;Path&gt; copy 5" class="s1" d="m613 548.8q0 14.1-5.8 20.2-5.8 6.2-16.2 6.2-10.4 0-16.2-6.2-5.8-6.1-5.8-20.2v-52.7h-22.8v53.5q0 21.7 11.8 33.4 11.9 11.7 32.8 11.7 21 0 32.9-11.7 11.8-11.7 11.8-33.4v-53.5h-22.5z"/>
					<path id="&lt;Compound Path&gt; copy" class="s1" d="m776.4 594.7l-22.1-31.6q0.1-0.1 0.2-0.1 9.6-4.2 14.8-12.2 5.2-7.9 5.2-18.9 0-11.2-5.2-19.2-5.2-8-14.8-12.3-9.5-4.3-22.8-4.3h-42.6v98.6h22.8v-27.5h19.8q0.6 0 1.1 0l18.9 27.5zm-30.1-75.5q5.2 4.5 5.2 12.7 0 8-5.2 12.6-5.2 4.5-15.8 4.5h-18.6v-34.3h18.6q10.6 0 15.8 4.5z"/>
					<path id="&lt;Path&gt; copy 6" class="s1" d="m415.5 663.6q-2.6-1.4-5.6-2.3-3-0.9-6-1.6-2.9-0.7-5.2-1.4-2.2-0.6-3.4-1.7-0.5-0.4-0.7-1-0.3-0.5-0.3-1.3c0-0.9 0.3-1.7 0.8-2.4 0.4-0.6 1.3-1.2 2.6-1.7 1.2-0.5 3-0.8 5.2-0.8q2.8 0 5.9 0.9 3.1 0.8 6.1 2.5l1.3 0.9 3.8-9.2-1-0.6q-3.2-2.1-7.5-3.2-4.2-1.1-8.5-1.1c-4.4 0-8 0.6-11 2-2.9 1.3-5.2 3.1-6.7 5.5-1.5 2.3-2.2 4.8-2.2 7.6 0 2.6 0.5 4.9 1.7 6.8 1.1 1.7 2.6 3.1 4.4 4.2q2.5 1.5 5.6 2.4 3 0.9 5.9 1.6 2.9 0.6 5.2 1.3 2.2 0.7 3.5 1.8 0.5 0.5 0.7 1 0.3 0.5 0.3 1.3c0 0.9-0.3 1.6-0.8 2.2-0.5 0.7-1.3 1.2-2.6 1.7-1.3 0.5-3.1 0.7-5.4 0.7q-4 0-7.9-1.3-3.9-1.4-6.4-3.4l-1.4-1.1-4.1 9.2 0.8 0.6c2.1 1.8 4.9 3.2 8.3 4.3q5.1 1.6 10.7 1.6c4.3 0 8-0.7 11-2 2.9-1.3 5.2-3.2 6.7-5.5 1.5-2.3 2.2-4.9 2.2-7.6 0-2.5-0.5-4.8-1.6-6.7-1.1-1.7-2.6-3.1-4.4-4.2z"/>
					<path id="&lt;Compound Path&gt; copy 2" class="s1" d="m468.7 646.7q-3.5-3.4-8.3-5.3-4.7-1.8-10.3-1.8-5.6 0-10.4 1.8-4.7 1.9-8.3 5.3-3.5 3.4-5.5 7.9-2 4.6-1.9 10-0.1 5.4 1.9 9.9 2 4.6 5.5 8 3.6 3.3 8.3 5.2 4.8 1.9 10.4 1.9 5.6 0 10.3-1.9 4.8-1.9 8.3-5.2 3.6-3.3 5.5-7.9 2-4.6 2-10 0-5.4-2-10-1.9-4.5-5.5-7.9zm-33.4 17.9q0-3.3 1.1-6 1.1-2.6 3.1-4.6 2-2 4.7-3.1 2.6-1.1 5.9-1.1 3.2 0 5.9 1.1 2.7 1.1 4.6 3.1 2 2 3.1 4.6 1.1 2.7 1.1 6 0 3.3-1.1 5.9-1.1 2.7-3.1 4.7-1.9 2-4.6 3-2.7 1.1-5.9 1.1-3.3 0-5.9-1.1-2.7-1-4.7-3-2-2-3.1-4.7-1.1-2.7-1.1-5.9z"/>
					<path id="&lt;Path&gt; copy 7" class="s1" d="m493.8 639.6h-11.3v50h1.4 33.9v-10h-24z"/>
					<path id="&lt;Path&gt; copy 8" class="s1" d="m552.5 667.2q0 3.4-0.7 5.7c-0.4 1.6-1.1 2.8-1.9 3.7-0.9 0.9-1.9 1.5-3.1 2q-1.9 0.7-4.5 0.7-2.6 0-4.5-0.7c-1.2-0.5-2.2-1.1-3.1-2.1-0.9-0.8-1.5-2-2-3.6q-0.7-2.3-0.7-5.7v-27.6h-11.3v27.9q0 5.2 1.4 9.3c1 2.8 2.4 5.1 4.4 7.1q2.9 2.8 6.9 4.3 3.9 1.4 8.8 1.4 4.9 0 8.9-1.4 3.9-1.5 6.8-4.3c2-2 3.4-4.3 4.4-7.1q1.4-4.1 1.4-9.3v-27.9h-11.2z"/>
					<path id="&lt;Path&gt; copy 9" class="s1" d="m566.1 649.6h15.2v40h1.4 9.9v-40h15.2v-10h-41.7z"/>
					<path id="&lt;Path&gt; copy 10" class="s1" d="m611.5 689.6h1.4 9.9v-50h-11.3z"/>
					<path id="&lt;Compound Path&gt; copy 3" class="s1" d="m673.9 646.7q-3.5-3.4-8.3-5.3-4.7-1.8-10.3-1.8-5.6 0-10.4 1.8-4.7 1.9-8.3 5.3-3.6 3.4-5.5 7.9-2 4.6-1.9 10-0.1 5.4 1.9 9.9 1.9 4.6 5.5 8 3.6 3.3 8.3 5.2 4.8 1.9 10.4 1.9 5.6 0 10.3-1.9 4.8-1.9 8.3-5.2 3.6-3.3 5.5-7.9 2-4.6 2-10 0-5.4-2-10-1.9-4.5-5.5-7.9zm-33.4 17.9q0-3.3 1.1-6 1.1-2.6 3.1-4.6 2-2 4.7-3.1 2.6-1.1 5.9-1.1 3.2 0 5.9 1.1 2.7 1.1 4.6 3.1 2 2 3.1 4.6 1.1 2.7 1.1 6 0 3.3-1.1 5.9-1.1 2.7-3.1 4.7-1.9 2-4.6 3-2.7 1.1-5.9 1.1-3.3 0-5.9-1.1-2.7-1-4.7-3-2-2-3.1-4.7-1.1-2.7-1.1-5.9z"/>
					<path id="&lt;Path&gt; copy 11" class="s1" d="m720 668.7l-23.3-29.1h-9v50h1.4 9.8v-29.7l23.3 29.7h9v-50h-11.2z"/>
					<path id="&lt;Path&gt; copy 12" class="s1" d="m774.7 667.8c-1.1-1.7-2.6-3.1-4.4-4.2q-2.5-1.4-5.6-2.3-2.9-0.9-5.9-1.6-2.9-0.7-5.3-1.4-2.2-0.6-3.4-1.7-0.5-0.4-0.7-1-0.2-0.5-0.3-1.3c0.1-0.9 0.3-1.7 0.8-2.4 0.5-0.6 1.3-1.2 2.6-1.7 1.2-0.5 3-0.8 5.2-0.8q2.8 0 6 0.9 3.1 0.8 6 2.5l1.4 0.9 3.7-9.2-1-0.6q-3.2-2.1-7.5-3.2-4.2-1.1-8.5-1.1c-4.3 0-8 0.6-11 2-2.9 1.3-5.2 3.1-6.7 5.5-1.4 2.3-2.2 4.8-2.2 7.6 0 2.6 0.6 4.9 1.7 6.8 1.2 1.7 2.6 3.1 4.4 4.2q2.6 1.5 5.6 2.4 3 0.9 6 1.6 2.8 0.6 5.2 1.3 2.2 0.7 3.4 1.8 0.5 0.5 0.8 1 0.2 0.5 0.2 1.3c0 0.9-0.2 1.6-0.7 2.2-0.5 0.7-1.4 1.2-2.7 1.7-1.3 0.5-3.1 0.7-5.4 0.7q-4 0-7.8-1.3-3.9-1.4-6.5-3.4l-1.4-1.1-4.1 9.2 0.8 0.6c2.1 1.8 4.9 3.2 8.3 4.3q5.1 1.6 10.7 1.6c4.4 0 8-0.7 11-2 3-1.3 5.3-3.2 6.8-5.5 1.4-2.3 2.2-4.9 2.2-7.6 0-2.5-0.6-4.8-1.7-6.7z"/>
				</g>
			</g>
		</g>
	</g>
	<g id="Layer 1">
	</g>
</svg>