<svg version="1.2" xmlns="http://www.w3.org/2000/svg" viewBox="0 0 800 300" width="800" height="300">
	<title>Proyecto nuevo</title>
	<style>
		.s0 { fill: #ffffff } 
	</style>
	<g id="Layer 1">
		<g id="Layer 1">
			<path class="s0" d="m85.3 103.1q0-0.2 0-0.5c0-3.7-2.2-7-5.6-8.5-3.4-1.4-7.4-0.6-10 2-2.6 2.6-3.4 6.6-2 10 1.4 3.4 4.8 5.6 8.5 5.6h0.3l30.9 31.4v17.2q0 5.8-1.1 11.4-1.1 5.6-3.3 10.9-2.2 5.3-5.3 10.1-3.2 4.8-7.2 8.9l-45.5 46.6v-177.3l62.4-19.9v74.6z"/>
			<path class="s0" d="m239.1 73.4v78.8q0 0.5-0.1 1-0.1 0.5-0.3 1-0.2 0.5-0.5 1-0.3 0.4-0.6 0.8l-19.3 19.6-25 25.4c-1.8 1.8-4 3.3-6.4 4.3-2.4 1-4.9 1.5-7.5 1.5-2.6 0-5.2-0.5-7.6-1.5-2.4-1-4.5-2.5-6.4-4.3l-44.2-45q-0.4-0.4-0.6-0.9-0.3-0.4-0.5-0.9-0.2-0.5-0.3-1-0.1-0.5-0.1-1v-67.4l71.7 72.3q0 0.2 0 0.5c0.4 3.6 2.9 6.6 6.4 7.7 3.5 1.1 7.2 0 9.6-2.8 2.4-2.8 2.9-6.7 1.3-9.9-1.6-3.3-5-5.3-8.6-5.2q-0.1 0-0.3 0-0.1 0-0.2 0-0.1 0.1-0.3 0.1-0.1 0-0.2 0l-15.5-15.6z"/>
			<path class="s0" d="m313.8 70.9v177.3l-45.6-46.6q-4-4.1-7.1-8.9-3.2-4.8-5.3-10.1-2.2-5.3-3.3-10.9-1.1-5.6-1.1-11.4v-17.2l30.8-31.4h0.4c3.7 0 7-2.2 8.4-5.6 1.4-3.4 0.7-7.4-2-10-2.6-2.6-6.5-3.4-9.9-2-3.4 1.4-5.7 4.8-5.7 8.5q0 0.2 0 0.5l-22 22.5v-74.6z"/>
			<path class="s0" d="m453.3 51l-36.3 61.2-37-61.2h-18.8v98.6h21.4v-57.9l28.8 47.5h10.3l29-48.8 0.2 59.2h21.4l-0.3-98.6h-18.7z"/>
			<path class="s0" d="m592.4 103.7q0 14.1-5.8 20.2-5.8 6.2-16.2 6.3-10.5 0-16.2-6.2-5.8-6.2-5.8-20.3v-52.7h-22.8v53.5q0 21.7 11.8 33.4 11.8 11.7 32.8 11.7 21 0 32.8-11.7 11.9-11.7 11.9-33.4v-53.5h-22.5z"/>
			<path class="s0" d="m755.7 149.6l-22-31.6 0.2-0.1q2.3-0.9 4.4-2.2 2.1-1.3 3.9-2.8 1.9-1.6 3.5-3.4 1.7-1.8 3-3.8 5.2-7.9 5.2-18.9 0-11-5.2-19.2-1.3-2-3-3.8-1.6-1.9-3.5-3.4-1.8-1.6-3.9-2.9-2.1-1.2-4.4-2.2-9.5-4.3-22.8-4.3h-42.7v98.6h22.8v-27.4h19.9 1.1l18.9 27.4zm-30.1-75.4q5.2 4.5 5.2 12.6 0 8.2-5.2 12.6-5.3 4.6-15.8 4.6h-18.6v-34.3h18.6q10.5 0 15.8 4.5z"/>
			<path class="s0" d="m394.9 218.5q-0.7-0.3-1.4-0.7-0.7-0.3-1.4-0.6-0.7-0.3-1.4-0.6-0.7-0.2-1.4-0.4c-2-0.6-4-1.1-6-1.6q-2.9-0.7-5.3-1.4-0.4-0.1-0.9-0.3-0.4-0.1-0.8-0.4-0.4-0.2-0.8-0.4-0.4-0.3-0.8-0.6-0.1-0.1-0.2-0.2-0.2-0.1-0.2-0.2-0.1-0.2-0.2-0.3-0.1-0.1-0.2-0.3 0-0.1-0.1-0.3 0-0.2-0.1-0.3 0-0.2 0-0.4 0-0.2 0-0.3 0-0.3 0-0.7 0.1-0.3 0.2-0.6 0.1-0.3 0.2-0.5 0.1-0.3 0.3-0.6 0.3-0.3 0.6-0.5 0.3-0.3 0.6-0.5 0.3-0.2 0.7-0.4 0.4-0.2 0.7-0.3 0.7-0.2 1.3-0.4 0.7-0.1 1.3-0.2 0.7-0.1 1.3-0.2 0.7 0 1.4 0 0.7 0 1.5 0.1 0.7 0 1.5 0.1 0.7 0.1 1.4 0.3 0.8 0.2 1.5 0.4 0.8 0.2 1.6 0.4 0.7 0.3 1.5 0.6 0.8 0.4 1.5 0.7 0.7 0.4 1.4 0.8l1.4 0.9 3.7-9.2-1-0.6q-0.9-0.6-1.8-1.1-0.9-0.4-1.8-0.8-1-0.4-1.9-0.8-1-0.3-2-0.5-1-0.3-2.1-0.5-1.1-0.2-2.1-0.4-1.1-0.1-2.2-0.2-1.1 0-2.1 0-1.4-0.1-2.8 0-1.4 0.1-2.8 0.4-1.4 0.2-2.8 0.6-1.3 0.4-2.6 1-1 0.4-2 1-0.9 0.5-1.8 1.2-0.8 0.7-1.6 1.5-0.7 0.9-1.3 1.8-0.6 0.8-1 1.7-0.4 0.9-0.7 1.9-0.3 1-0.4 2-0.1 1-0.1 2-0.1 0.9 0 1.7 0.1 0.9 0.3 1.8 0.2 0.8 0.6 1.7 0.3 0.8 0.8 1.6 0.4 0.6 0.9 1.2 0.5 0.6 1 1.1 0.6 0.6 1.2 1 0.6 0.5 1.2 0.9 0.7 0.4 1.4 0.7 0.7 0.3 1.4 0.7 0.7 0.3 1.4 0.5 0.7 0.3 1.5 0.5 3 0.9 5.9 1.6 2.9 0.6 5.2 1.4 0.5 0.1 0.9 0.3 0.5 0.1 0.9 0.4 0.4 0.2 0.8 0.5 0.4 0.2 0.8 0.5 0.1 0.1 0.3 0.2 0.1 0.1 0.2 0.3 0.1 0.1 0.1 0.2 0.1 0.2 0.2 0.3 0.1 0.2 0.1 0.3 0.1 0.2 0.1 0.4 0 0.1 0 0.3 0.1 0.2 0.1 0.4 0 0.2-0.1 0.5 0 0.3-0.1 0.6-0.1 0.3-0.3 0.6-0.1 0.2-0.3 0.5-0.3 0.2-0.6 0.5-0.3 0.3-0.6 0.5-0.4 0.2-0.7 0.4-0.4 0.1-0.8 0.2-0.6 0.2-1.3 0.4-0.6 0.1-1.3 0.2-0.7 0.1-1.4 0.1-0.7 0.1-1.3 0-1 0-2-0.1-1 0-2-0.2-1-0.2-2-0.4-1-0.3-1.9-0.6-0.9-0.3-1.7-0.7-0.9-0.3-1.7-0.8-0.8-0.4-1.5-0.9-0.8-0.5-1.5-1l-1.4-1.1-4.1 9.2 0.8 0.7q0.9 0.7 1.9 1.3 1 0.6 2 1.2 1 0.5 2.1 0.9 1.1 0.5 2.3 0.8 1.2 0.4 2.6 0.7 1.3 0.3 2.6 0.5 1.4 0.2 2.7 0.3 1.4 0.1 2.8 0.1 1.4 0 2.8-0.1 1.4-0.1 2.8-0.3 1.4-0.3 2.7-0.7 1.4-0.4 2.7-0.9 1-0.4 1.9-1 1-0.6 1.8-1.3 0.9-0.7 1.6-1.5 0.8-0.8 1.4-1.7 0.5-0.8 1-1.7 0.4-1 0.6-1.9 0.3-1 0.5-2 0.1-0.9 0.1-1.9 0.1-1.7-0.3-3.3-0.3-1.6-1.1-3-0.8-1.5-2-2.7-1.2-1.1-2.6-1.9z"/>
			<path class="s0" d="m448.1 201.6q-0.9-0.9-1.9-1.6-0.9-0.8-2-1.4-1-0.7-2.1-1.3-1.1-0.5-2.3-1-2.5-0.9-5.1-1.4-2.6-0.4-5.2-0.4-2.7 0-5.3 0.4-2.6 0.5-5.1 1.4-1.2 0.5-2.3 1-1.1 0.6-2.1 1.3-1.1 0.6-2 1.4-1 0.7-1.9 1.6-0.9 0.8-1.7 1.7-0.8 1-1.5 2-0.7 1-1.3 2-0.6 1.1-1 2.2-1 2.4-1.5 4.9-0.5 2.5-0.5 5.1 0 2.5 0.5 5 0.5 2.6 1.5 4.9 0.4 1.1 1 2.2 0.6 1.1 1.3 2.1 0.7 1 1.5 1.9 0.8 0.9 1.7 1.8 0.9 0.8 1.9 1.6 0.9 0.7 2 1.4 1 0.7 2.1 1.2 1.1 0.6 2.3 1 1.2 0.5 2.5 0.8 1.3 0.4 2.6 0.6 1.3 0.3 2.6 0.4 1.4 0.1 2.7 0.1 1.3 0 2.6-0.1 1.3-0.1 2.6-0.4 1.3-0.2 2.6-0.6 1.3-0.3 2.5-0.8 1.2-0.4 2.3-1 1.1-0.5 2.1-1.2 1.1-0.6 2-1.4 1-0.7 1.9-1.6 0.9-0.8 1.7-1.8 0.8-0.9 1.5-1.9 0.7-1 1.3-2.1 0.5-1.1 1-2.2 1-2.4 1.5-4.9 0.4-2.5 0.4-5.1 0-2.5-0.4-5-0.5-2.6-1.5-4.9-0.5-1.1-1.1-2.2-0.5-1.1-1.2-2.1-0.7-0.9-1.5-1.9-0.8-0.9-1.7-1.7zm-33.4 17.9q0-0.8 0-1.5 0.1-0.8 0.2-1.5 0.2-0.8 0.4-1.5 0.2-0.7 0.5-1.4 0.3-0.7 0.6-1.3 0.3-0.6 0.7-1.2 0.4-0.6 0.9-1.2 0.4-0.5 0.9-1 0.5-0.5 1-1 0.6-0.4 1.2-0.8 0.6-0.4 1.2-0.7 0.6-0.3 1.3-0.6 0.7-0.3 1.4-0.5 0.7-0.2 1.4-0.3 0.8-0.2 1.5-0.2 0.8-0.1 1.5-0.1 0.8 0 1.6 0.1 0.7 0 1.5 0.2 0.7 0.1 1.4 0.3 0.8 0.2 1.5 0.5 0.6 0.3 1.2 0.6 0.7 0.3 1.2 0.7 0.6 0.4 1.2 0.8 0.5 0.5 1 1 0.5 0.5 0.9 1 0.5 0.6 0.9 1.2 0.4 0.5 0.7 1.2 0.3 0.6 0.6 1.2 0.5 1.5 0.8 3 0.3 1.5 0.3 3 0 1.5-0.3 3-0.3 1.5-0.8 2.9-0.3 0.7-0.6 1.3-0.3 0.6-0.7 1.2-0.4 0.6-0.9 1.1-0.4 0.6-0.9 1.1-0.5 0.5-1 0.9-0.6 0.5-1.2 0.9-0.5 0.4-1.2 0.7-0.6 0.3-1.2 0.6-1.4 0.5-2.9 0.8-1.5 0.2-3.1 0.2-1.5 0-3-0.2-1.5-0.3-2.9-0.8-0.6-0.3-1.2-0.6-0.7-0.3-1.3-0.7-0.5-0.4-1.1-0.9-0.5-0.4-1-0.9-0.5-0.5-1-1.1-0.4-0.5-0.8-1.1-0.4-0.6-0.7-1.2-0.3-0.7-0.6-1.3-0.3-0.7-0.5-1.4-0.2-0.8-0.3-1.5-0.2-0.8-0.3-1.5 0-0.8 0-1.5z"/>
			<path class="s0" d="m473.1 194.5h-11.3v50h1.4 33.9v-10h-24v-40z"/>
			<path class="s0" d="m531.9 222.1q0 0.7 0 1.4-0.1 0.8-0.1 1.5-0.1 0.7-0.3 1.4-0.1 0.7-0.3 1.4-0.1 0.5-0.3 1-0.2 0.5-0.5 1-0.2 0.4-0.5 0.8-0.3 0.5-0.6 0.9-0.4 0.3-0.7 0.6-0.4 0.3-0.8 0.6-0.4 0.2-0.8 0.4-0.4 0.3-0.9 0.4-1 0.4-2.2 0.6-1.1 0.1-2.2 0.1-1.2 0-2.3-0.1-1.1-0.2-2.2-0.6-0.4-0.1-0.9-0.4-0.4-0.2-0.8-0.4-0.4-0.3-0.8-0.6-0.3-0.3-0.6-0.6-0.4-0.4-0.7-0.8-0.3-0.5-0.6-0.9-0.2-0.5-0.4-1-0.2-0.5-0.4-1-0.1-0.7-0.3-1.4-0.1-0.7-0.2-1.4-0.1-0.7-0.1-1.4-0.1-0.8-0.1-1.5v-27.6h-11.2v27.9q0 1.2 0 2.4 0.1 1.2 0.3 2.3 0.2 1.2 0.5 2.4 0.2 1.1 0.6 2.2 0.3 1 0.8 2 0.4 0.9 1 1.8 0.5 0.9 1.2 1.7 0.6 0.8 1.3 1.5 0.8 0.8 1.6 1.4 0.8 0.6 1.6 1.2 0.9 0.5 1.8 1 1 0.4 1.9 0.8 2.2 0.7 4.4 1 2.2 0.4 4.5 0.4 2.2 0 4.5-0.4 2.2-0.3 4.4-1 0.9-0.4 1.8-0.8 1-0.5 1.8-1 0.9-0.6 1.7-1.2 0.8-0.6 1.5-1.4 0.7-0.7 1.4-1.5 0.6-0.8 1.2-1.7 0.5-0.9 1-1.8 0.4-1 0.8-2 0.3-1.1 0.6-2.2 0.3-1.2 0.5-2.4 0.1-1.1 0.2-2.3 0.1-1.2 0.1-2.4v-27.9h-11.2z"/>
			<path class="s0" d="m545.5 204.5h15.2v40h1.4 9.9v-40h15.2v-10h-41.7v10z"/>
			<path class="s0" d="m590.9 244.5h1.4 9.9v-50h-11.3v50z"/>
			<path class="s0" d="m653.3 201.6q-0.9-0.9-1.9-1.6-0.9-0.8-2-1.4-1-0.7-2.1-1.3-1.1-0.5-2.3-1-2.5-0.9-5.1-1.4-2.6-0.4-5.2-0.4-2.7 0-5.3 0.4-2.6 0.5-5.1 1.4-1.2 0.5-2.3 1-1.1 0.6-2.1 1.3-1.1 0.6-2.1 1.4-0.9 0.7-1.8 1.6-0.9 0.8-1.7 1.7-0.8 1-1.5 2-0.7 1-1.3 2-0.6 1.1-1 2.2-1 2.4-1.5 4.9-0.5 2.5-0.5 5.1 0 2.5 0.5 5 0.5 2.6 1.5 4.9 0.4 1.2 1 2.2 0.6 1.1 1.3 2.1 0.7 1 1.5 1.9 0.8 0.9 1.7 1.8 0.9 0.8 1.8 1.6 1 0.7 2.1 1.4 1 0.7 2.1 1.2 1.1 0.6 2.3 1 1.2 0.5 2.5 0.8 1.3 0.4 2.6 0.6 1.3 0.3 2.6 0.4 1.4 0.1 2.7 0.1 1.3 0 2.6-0.1 1.3-0.1 2.6-0.4 1.3-0.2 2.6-0.6 1.3-0.3 2.5-0.8 1.2-0.4 2.3-1 1.1-0.5 2.1-1.2 1.1-0.6 2-1.4 1-0.7 1.9-1.6 0.9-0.8 1.7-1.8 0.8-0.9 1.5-1.9 0.7-1 1.3-2.1 0.5-1.1 1-2.2 1-2.4 1.5-4.9 0.4-2.5 0.4-5.1 0-2.5-0.4-5-0.5-2.6-1.5-4.9-0.5-1.1-1.1-2.2-0.5-1.1-1.2-2.1-0.7-1-1.5-1.9-0.8-0.9-1.7-1.7zm-33.4 17.9q0-0.8 0-1.5 0.1-0.8 0.2-1.5 0.2-0.8 0.4-1.5 0.2-0.7 0.5-1.4 0.3-0.7 0.6-1.3 0.3-0.7 0.7-1.2 0.4-0.6 0.9-1.2 0.4-0.5 0.9-1 0.5-0.5 1-1 0.6-0.4 1.2-0.8 0.6-0.4 1.2-0.7 0.6-0.3 1.3-0.6 0.7-0.3 1.4-0.5 0.7-0.2 1.4-0.3 0.8-0.2 1.5-0.2 0.8-0.1 1.5-0.1 0.8 0 1.6 0.1 0.7 0 1.5 0.2 0.7 0.1 1.4 0.3 0.8 0.2 1.5 0.5 0.6 0.3 1.2 0.6 0.7 0.3 1.2 0.7 0.6 0.4 1.2 0.8 0.5 0.5 1 1 0.5 0.5 0.9 1 0.5 0.6 0.9 1.2 0.4 0.5 0.7 1.2 0.3 0.6 0.6 1.2 0.3 0.8 0.5 1.5 0.2 0.7 0.3 1.5 0.2 0.7 0.2 1.5 0.1 0.7 0.1 1.5 0 0.7-0.1 1.5 0 0.8-0.2 1.5-0.1 0.7-0.3 1.5-0.2 0.7-0.5 1.4-0.3 0.7-0.6 1.3-0.3 0.6-0.7 1.2-0.4 0.6-0.9 1.1-0.4 0.6-0.9 1.1-0.5 0.5-1 0.9-0.6 0.5-1.2 0.9-0.5 0.3-1.2 0.7-0.6 0.3-1.3 0.6-1.4 0.5-2.9 0.8-1.4 0.2-3 0.2-1.5 0-3-0.2-1.5-0.3-2.9-0.9-0.6-0.2-1.3-0.5-0.6-0.4-1.2-0.7-0.5-0.4-1.1-0.9-0.5-0.4-1-0.9-0.5-0.5-1-1.1-0.4-0.5-0.8-1.1-0.4-0.6-0.7-1.2-0.3-0.7-0.6-1.3-0.3-0.7-0.5-1.4-0.2-0.8-0.4-1.5-0.1-0.8-0.2-1.5 0-0.8 0-1.5z"/>
			<path class="s0" d="m699.4 223.6l-23.3-29.1h-9.1v50h1.4 9.9v-29.6l23.2 29.6h9.1v-50h-11.2v29.1z"/>
			<path class="s0" d="m754.1 222.7q-0.4-0.6-0.9-1.2-0.5-0.6-1.1-1.1-0.5-0.6-1.1-1-0.6-0.5-1.3-0.9-0.7-0.3-1.3-0.7-0.7-0.3-1.4-0.6-0.7-0.3-1.5-0.6-0.7-0.2-1.4-0.4-3-0.9-6-1.6c-2-0.4-3.7-0.9-5.3-1.4q-0.4-0.1-0.9-0.3-0.4-0.1-0.8-0.4-0.5-0.2-0.9-0.4-0.4-0.3-0.7-0.6-0.2-0.1-0.3-0.2-0.1-0.1-0.2-0.2-0.1-0.2-0.1-0.3-0.1-0.1-0.2-0.3 0-0.1-0.1-0.3 0-0.2-0.1-0.3 0-0.2 0-0.4 0-0.2 0-0.3 0-0.3 0-0.7 0.1-0.3 0.2-0.6 0-0.3 0.2-0.5 0.1-0.3 0.3-0.6 0.3-0.3 0.6-0.5 0.3-0.3 0.6-0.5 0.3-0.3 0.7-0.4 0.3-0.2 0.7-0.3 0.7-0.2 1.3-0.4 0.6-0.1 1.3-0.2 0.7-0.1 1.3-0.2 0.7 0 1.4 0 0.7 0 1.5 0.1 0.7 0 1.5 0.1 0.7 0.1 1.4 0.3 0.8 0.2 1.5 0.4 0.8 0.2 1.6 0.4 0.7 0.3 1.5 0.6 0.7 0.4 1.5 0.7 0.7 0.4 1.4 0.8l1.4 0.9 3.7-9.2-1-0.6q-0.9-0.6-1.8-1.1-0.9-0.4-1.8-0.8-1-0.5-1.9-0.8-1-0.3-2-0.5-1-0.3-2.1-0.5-1.1-0.2-2.1-0.4-1.1-0.1-2.2-0.2-1.1 0-2.1 0-1.4-0.1-2.9 0-1.4 0.1-2.7 0.4-1.4 0.2-2.8 0.6-1.3 0.4-2.6 1-1.1 0.4-2 1-0.9 0.5-1.8 1.2-0.8 0.7-1.6 1.5-0.7 0.9-1.3 1.8-0.6 0.8-1 1.7-0.4 0.9-0.7 1.9-0.3 1-0.4 2-0.2 1-0.2 2 0 0.9 0.1 1.7 0.1 0.9 0.3 1.8 0.2 0.8 0.6 1.7 0.3 0.8 0.8 1.6 0.4 0.6 0.9 1.2 0.5 0.6 1 1.1 0.6 0.6 1.2 1 0.6 0.5 1.2 0.9 0.7 0.4 1.4 0.7 0.7 0.3 1.4 0.7 0.7 0.3 1.4 0.5 0.7 0.3 1.5 0.5 3 0.9 5.9 1.6 2.9 0.6 5.2 1.4 0.5 0.1 0.9 0.3 0.5 0.1 0.9 0.4 0.4 0.2 0.8 0.5 0.4 0.2 0.8 0.5 0.1 0.1 0.3 0.2 0.1 0.1 0.2 0.3 0.1 0.1 0.1 0.2 0.1 0.2 0.2 0.3 0 0.2 0.1 0.3 0.1 0.2 0.1 0.4 0 0.1 0 0.3 0 0.2 0 0.4 0 0.2 0 0.5-0.1 0.3-0.1 0.6-0.1 0.3-0.3 0.6-0.1 0.2-0.3 0.5-0.3 0.2-0.6 0.5-0.3 0.3-0.6 0.5-0.4 0.2-0.7 0.4-0.4 0.1-0.8 0.2-0.6 0.2-1.3 0.4-0.7 0.1-1.3 0.2-0.7 0.1-1.4 0.1-0.7 0.1-1.3 0-1 0-2 0-1-0.1-2-0.3-1-0.2-2-0.4-1-0.3-1.9-0.6-0.9-0.3-1.7-0.7-0.9-0.3-1.7-0.8-0.8-0.4-1.5-0.9-0.8-0.5-1.5-1l-1.4-1.1-4.1 9.2 0.8 0.7q0.9 0.7 1.9 1.3 0.9 0.6 2 1.2 1 0.5 2.1 0.9 1.1 0.5 2.2 0.8 1.3 0.4 2.7 0.7 1.3 0.3 2.6 0.5 1.4 0.2 2.7 0.3 1.4 0.1 2.8 0.1 1.4 0 2.8-0.1 1.4-0.1 2.8-0.3 1.4-0.3 2.7-0.7 1.4-0.4 2.7-0.9 1-0.4 1.9-1 1-0.6 1.8-1.3 0.9-0.7 1.6-1.5 0.8-0.8 1.4-1.7 0.5-0.8 0.9-1.7 0.5-0.9 0.7-1.9 0.3-1 0.5-2 0.1-0.9 0.1-1.9 0-0.9 0-1.8-0.1-0.9-0.3-1.7-0.2-0.9-0.5-1.7-0.3-0.8-0.7-1.6z"/>
		</g>
	</g>
</svg>